<?xml version="1.0" encoding="UTF-8" ?>
<!DOCTYPE svg PUBLIC "-//W3C//DTD SVG 1.1//EN" "http://www.w3.org/Graphics/SVG/1.1/DTD/svg11.dtd">
<svg width="1100pt" height="1100pt" viewBox="0 0 1100 1100" version="1.1" xmlns="http://www.w3.org/2000/svg">
<g id="#ffffffff">
</g>
<g id="#0d2959ff">
<path fill="#0d2959" opacity="1.00" d=" M 79.12 36.26 C 212.87 112.03 346.54 187.93 480.26 263.76 C 482.87 265.23 485.58 266.56 487.95 268.43 C 466.19 277.82 447.75 295.00 437.21 316.26 C 428.18 334.19 425.31 355.22 429.71 374.85 C 437.99 413.67 471.79 444.63 510.46 451.88 C 506.40 435.67 502.39 419.42 499.68 402.92 C 497.14 386.43 495.84 368.90 501.98 353.02 C 506.94 339.85 517.65 329.41 530.22 323.38 C 527.57 320.83 524.37 318.94 521.73 316.38 C 533.82 313.33 546.53 313.00 558.79 315.31 C 558.82 309.38 559.11 303.46 559.27 297.54 C 587.25 322.26 616.94 345.06 648.19 365.50 C 645.46 367.37 642.52 368.88 639.79 370.73 C 647.74 372.06 654.97 377.17 658.55 384.43 C 660.37 388.13 660.55 392.80 658.38 396.40 C 654.56 402.91 648.02 407.44 640.87 409.61 C 637.90 405.45 633.94 401.76 628.95 400.25 C 623.48 398.41 617.67 399.83 612.04 399.55 C 603.39 399.25 595.28 395.51 588.11 390.90 C 592.79 404.42 601.74 416.20 613.09 424.83 C 628.26 436.64 645.81 445.00 660.63 457.29 C 677.14 470.52 689.66 488.29 697.82 507.73 C 691.10 511.72 684.41 515.76 677.70 519.76 C 679.13 519.98 680.57 520.12 682.04 520.17 C 706.30 520.39 730.55 520.45 754.81 520.70 C 751.97 524.33 749.25 528.05 746.39 531.66 C 757.21 533.74 768.90 532.97 778.77 527.80 C 785.87 524.13 791.84 517.79 793.98 509.97 C 795.35 505.49 795.27 500.74 794.82 496.13 C 799.64 494.50 804.35 492.45 808.58 489.60 C 811.41 487.74 814.04 485.42 817.33 484.38 C 823.11 482.42 829.36 483.27 835.19 484.58 C 824.73 487.51 816.47 496.68 815.22 507.55 C 822.53 503.80 829.78 499.93 837.08 496.14 C 840.49 500.71 846.31 501.02 851.49 501.32 C 859.13 504.46 863.10 512.45 867.06 519.21 C 857.94 516.15 847.80 516.14 838.84 519.75 C 835.57 533.17 827.44 545.19 816.55 553.62 C 810.85 558.25 804.30 561.60 797.73 564.78 C 802.43 569.94 807.08 575.15 811.76 580.33 C 801.71 583.12 790.89 582.24 781.12 578.79 C 777.00 577.20 772.43 574.66 771.29 570.03 C 770.41 566.89 771.91 563.86 773.12 561.06 C 750.12 566.86 727.09 572.55 704.05 578.21 C 701.09 583.65 699.34 589.69 698.82 595.86 C 687.51 605.06 674.08 611.44 659.88 614.70 C 607.69 626.98 555.32 638.51 503.02 650.33 C 500.84 669.41 493.07 687.86 480.57 702.48 C 466.75 718.86 447.15 730.33 426.02 733.99 C 403.13 738.02 379.26 732.82 359.04 721.73 C 364.13 733.84 368.64 746.19 373.66 758.33 C 376.67 765.97 382.89 772.64 390.92 774.93 C 396.63 776.56 402.55 774.05 406.89 770.36 C 416.64 784.89 426.50 799.36 436.22 813.91 C 401.13 813.80 366.04 814.33 330.94 814.30 C 325.30 767.07 319.46 719.86 313.74 672.64 C 323.29 681.09 335.12 687.38 347.93 688.78 C 362.17 690.51 376.73 685.70 387.89 676.87 C 399.38 667.88 407.47 654.95 411.41 640.97 C 384.31 639.75 357.16 640.10 330.04 640.04 C 318.27 639.81 306.13 639.53 295.08 634.99 C 284.63 630.63 275.22 623.65 268.21 614.74 C 258.11 601.32 253.29 583.60 256.89 567.02 C 260.27 551.09 271.09 537.45 284.57 528.68 C 295.31 521.73 308.61 520.56 321.07 521.61 C 340.49 523.29 359.45 528.06 378.51 531.92 C 391.67 520.04 410.74 515.08 428.02 519.01 C 452.39 523.70 476.76 528.44 501.13 533.12 C 498.04 548.05 488.47 561.43 475.56 569.48 C 467.54 574.32 458.43 577.33 449.07 577.99 C 430.65 580.44 412.27 575.97 394.46 571.72 C 371.58 566.09 349.18 558.36 325.87 554.60 C 317.86 553.62 308.93 552.38 301.58 556.56 C 294.66 561.42 289.46 569.43 289.48 578.09 C 289.15 589.76 296.72 600.89 307.19 605.70 C 360.10 605.96 413.02 605.65 465.94 605.85 C 482.23 606.90 499.07 601.86 511.35 590.92 C 505.05 589.56 499.44 585.63 496.46 579.87 C 507.71 579.75 519.24 575.89 527.18 567.70 C 522.42 566.10 517.67 564.47 512.91 562.86 C 512.24 562.74 509.92 561.77 511.94 561.23 C 522.36 555.50 530.20 544.92 531.70 533.03 C 531.70 524.70 531.68 516.14 528.63 508.26 C 515.62 505.83 502.89 501.78 490.41 497.32 C 482.53 494.81 475.25 490.78 467.81 487.22 C 461.44 483.29 454.62 480.02 448.77 475.29 C 439.17 468.36 430.52 460.23 422.00 452.04 C 409.97 439.99 402.17 424.45 396.63 408.51 C 391.84 388.72 390.19 368.30 390.01 347.98 C 390.28 334.66 392.64 321.52 395.29 308.51 C 398.64 296.57 402.36 284.56 409.00 273.97 C 375.69 256.05 342.62 237.68 309.26 219.85 C 301.82 216.50 294.91 212.12 287.80 208.16 C 232.09 176.55 176.41 144.88 120.71 113.26 C 104.55 104.15 91.60 89.40 84.92 72.07 C 80.41 60.73 78.60 48.42 79.12 36.26 Z" />
<path fill="#0d2959" opacity="1.00" d=" M 342.37 106.43 C 404.50 79.25 472.18 64.88 539.98 64.30 C 629.56 63.16 719.29 86.40 797.05 130.90 C 856.60 164.80 909.21 210.81 950.71 265.33 C 982.41 306.92 1007.72 353.41 1025.20 402.71 C 1056.83 491.55 1063.10 589.20 1042.89 681.31 C 1025.19 763.69 986.19 841.29 931.13 905.02 C 882.19 961.81 820.62 1007.71 752.02 1037.99 C 667.20 1075.81 571.88 1089.30 479.86 1077.36 C 432.37 1071.17 385.74 1058.35 341.89 1039.10 C 286.72 1015.09 236.01 981.04 192.59 939.43 C 137.32 886.38 94.11 820.80 67.61 748.90 C 35.82 663.10 28.10 568.71 44.91 478.80 C 54.25 429.49 70.78 381.51 94.12 337.07 C 102.99 341.67 111.78 346.43 120.75 350.84 C 112.93 366.96 104.98 383.07 98.74 399.90 C 92.13 416.91 86.56 434.32 81.80 451.94 C 81.59 452.95 81.38 453.97 81.17 455.00 C 60.48 535.69 61.72 621.66 84.10 701.87 C 105.30 777.69 145.69 848.03 200.48 904.56 C 240.68 946.31 288.50 980.71 340.91 1005.44 C 394.10 1030.78 452.11 1045.76 510.80 1050.19 C 522.21 1050.47 533.59 1051.59 545.01 1051.34 C 590.62 1051.36 636.21 1044.98 680.04 1032.24 C 754.76 1010.50 824.02 970.12 879.61 915.64 C 936.82 860.18 979.75 790.11 1003.16 713.93 C 1030.66 624.75 1031.32 527.54 1004.84 438.04 C 988.57 382.05 961.57 329.22 926.12 282.95 C 859.58 195.48 762.08 132.05 654.98 107.18 C 619.96 98.94 584.02 94.60 548.05 94.48 C 539.10 94.63 530.09 94.16 521.19 95.19 C 480.08 96.88 439.26 104.60 400.03 116.94 C 384.43 121.94 369.14 127.86 354.00 134.10 C 350.93 126.83 347.80 119.57 344.64 112.33 C 343.85 110.38 342.58 108.56 342.37 106.43 Z" />
<path fill="#0d2959" opacity="1.00" d=" M 88.27 110.62 C 167.05 155.22 245.84 199.81 324.62 244.44 C 347.05 256.20 369.12 268.67 391.37 280.80 C 388.80 287.32 386.56 293.96 384.34 300.61 C 381.00 308.94 379.96 317.92 378.59 326.72 C 368.95 321.54 359.21 316.54 349.57 311.37 C 277.93 271.35 207.05 229.98 135.82 189.24 C 116.58 178.54 101.43 160.75 93.94 140.04 C 90.47 130.62 88.69 120.63 88.27 110.62 Z" />
<path fill="#0d2959" opacity="1.00" d=" M 558.97 115.17 C 562.48 115.16 566.00 115.14 569.51 115.25 C 569.40 118.70 569.42 122.15 569.45 125.60 C 565.97 125.55 562.50 125.55 559.03 125.61 C 558.84 122.14 558.87 118.65 558.97 115.17 Z" />
<path fill="#0d2959" opacity="1.00" d=" M 548.72 127.70 C 558.77 126.88 568.80 128.48 578.85 128.36 C 578.43 132.98 580.05 138.16 577.35 142.30 C 571.12 153.25 565.55 164.56 559.39 175.55 C 565.61 175.44 571.73 176.85 577.96 176.48 C 577.65 180.25 577.22 184.02 577.03 187.81 C 567.26 187.78 557.51 187.05 547.75 186.94 C 548.11 182.33 546.42 177.14 549.15 173.02 C 555.03 161.61 560.88 150.19 566.79 138.79 C 560.75 138.53 554.62 139.35 548.64 138.32 C 548.64 134.78 548.62 131.24 548.72 127.70 Z" />
<path fill="#0d2959" opacity="1.00" d=" M 515.62 129.41 C 519.39 129.11 523.11 128.39 526.90 128.25 C 525.33 142.20 523.13 156.08 521.37 170.00 C 521.71 175.93 522.52 181.85 523.30 187.75 C 519.50 188.13 515.71 188.71 511.89 188.85 C 511.23 182.95 510.80 177.01 509.82 171.15 C 506.95 162.08 503.79 153.09 500.87 144.02 C 499.45 139.81 498.20 135.54 496.47 131.45 C 500.61 130.77 504.77 130.17 508.97 130.26 C 510.70 137.56 512.74 144.78 514.35 152.10 C 515.19 144.57 515.64 137.00 515.62 129.41 Z" />
<path fill="#0d2959" opacity="1.00" d=" M 603.56 138.22 C 606.13 135.85 609.37 134.28 612.13 132.10 C 616.66 132.73 621.21 133.31 625.72 134.11 C 627.68 137.68 630.39 140.76 632.77 144.05 C 631.97 146.97 631.39 149.94 630.83 152.91 C 627.32 152.75 623.82 152.39 620.35 151.87 C 620.37 149.53 620.35 147.20 620.28 144.86 C 618.77 144.40 617.26 143.90 615.77 143.41 C 615.28 143.81 614.30 144.60 613.81 144.99 C 613.57 148.40 610.62 152.56 613.48 155.46 C 616.29 156.16 619.20 156.46 622.09 156.75 C 624.33 159.58 626.46 162.50 628.86 165.21 C 627.89 172.44 626.15 179.54 625.04 186.75 C 622.42 188.74 619.74 190.64 617.17 192.68 C 615.41 192.55 613.67 192.33 611.97 191.91 C 608.90 191.57 605.81 191.30 602.80 190.58 C 601.08 187.51 598.84 184.77 596.68 182.00 C 596.93 177.88 597.70 173.82 597.78 169.70 C 601.66 170.18 605.65 170.21 609.43 171.32 C 608.77 174.20 607.94 177.16 608.51 180.14 C 610.87 180.75 613.44 181.79 615.48 179.82 C 616.12 176.27 616.83 172.74 617.34 169.18 C 617.63 167.67 615.88 167.32 614.86 166.89 C 612.19 166.07 609.37 165.91 606.73 165.04 C 604.41 163.08 602.89 160.34 601.06 157.94 C 599.98 156.70 600.71 154.99 600.88 153.56 C 601.96 148.48 602.41 143.29 603.56 138.22 Z" />
<path fill="#0d2959" opacity="1.00" d=" M 466.37 136.14 C 469.87 135.24 473.40 134.38 477.02 134.05 C 478.12 147.74 479.93 161.36 480.88 175.05 C 481.80 180.79 482.20 186.63 482.73 192.43 C 479.79 193.63 476.56 194.03 473.79 195.63 C 472.06 194.44 471.45 192.39 470.70 190.56 C 467.32 181.95 463.75 173.42 460.43 164.79 C 461.02 175.62 462.68 186.38 463.81 197.17 C 460.03 197.64 456.38 198.68 452.67 199.46 C 452.11 197.64 451.48 195.85 450.84 194.07 C 445.06 177.22 439.07 160.45 433.29 143.61 C 435.85 142.99 438.45 142.54 441.00 141.84 C 441.73 141.76 443.19 141.62 443.92 141.54 C 446.57 150.46 449.16 159.40 451.73 168.34 C 452.58 169.58 452.64 171.07 452.80 172.51 C 452.94 172.51 453.21 172.51 453.35 172.51 C 453.29 171.62 453.23 170.73 453.16 169.84 C 451.38 159.97 450.98 149.80 449.41 139.84 C 453.18 138.90 456.91 137.74 460.73 136.95 C 462.34 142.03 464.16 147.04 465.87 152.08 C 467.88 157.73 469.74 163.44 471.65 169.12 C 470.33 158.07 468.29 147.10 466.37 136.14 Z" />
<path fill="#0d2959" opacity="1.00" d=" M 656.12 149.10 C 656.67 146.41 657.50 143.79 658.53 141.25 C 659.38 141.51 661.08 142.01 661.92 142.27 C 670.45 144.78 679.12 146.87 687.51 149.81 C 686.68 152.84 685.75 155.83 684.90 158.86 C 684.43 159.98 683.90 161.09 682.99 161.92 C 673.95 171.40 665.13 181.10 656.08 190.57 C 658.91 191.79 661.99 192.29 664.93 193.23 C 667.81 193.87 670.59 194.89 673.46 195.61 C 672.44 199.05 671.79 202.80 669.98 205.89 C 660.55 203.56 651.31 200.49 641.91 198.06 C 642.85 194.13 643.95 190.15 645.65 186.49 C 654.43 176.50 663.60 166.85 672.34 156.82 C 666.65 154.91 660.87 153.29 655.10 151.68 C 655.43 150.82 655.77 149.96 656.12 149.10 Z" />
<path fill="#0d2959" opacity="1.00" d=" M 700.01 189.00 C 705.91 179.99 711.87 171.02 717.87 162.07 C 721.14 163.51 724.58 164.62 727.77 166.25 C 728.16 167.88 727.46 169.51 727.15 171.10 C 722.51 188.70 718.21 206.38 713.66 224.00 C 709.72 223.12 706.18 221.09 702.37 219.84 C 702.70 217.52 703.27 215.23 704.28 213.11 C 704.50 211.73 704.68 210.33 704.85 208.94 C 703.25 208.33 701.67 207.70 700.07 207.13 C 698.40 210.25 696.51 213.24 694.78 216.32 C 691.62 214.80 688.38 213.45 685.15 212.08 C 689.41 203.99 695.13 196.73 700.01 189.00 M 707.41 194.53 C 706.59 195.58 706.30 196.86 706.14 198.15 C 706.66 198.25 707.71 198.44 708.23 198.54 L 708.89 199.69 C 710.50 194.68 712.43 189.77 713.82 184.69 C 711.39 187.78 709.61 191.29 707.41 194.53 Z" />
<path fill="#0d2959" opacity="1.00" d=" M 109.33 189.32 C 175.11 226.98 240.89 264.62 306.68 302.26 C 329.80 315.79 353.37 328.53 376.94 341.25 C 376.77 348.16 376.30 355.07 376.66 361.98 C 377.08 372.25 376.80 382.64 378.90 392.75 C 304.51 351.92 230.99 309.53 157.07 267.88 C 144.14 260.78 133.00 250.48 124.85 238.20 C 115.23 223.79 109.91 206.62 109.33 189.32 Z" />
<path fill="#0d2959" opacity="1.00" d=" M 786.90 207.75 C 790.36 207.56 793.78 206.95 797.23 206.53 C 801.09 209.43 805.30 211.93 808.87 215.20 C 809.52 218.74 810.02 222.39 810.09 225.99 C 808.42 228.74 806.62 231.49 804.19 233.64 C 801.71 231.44 798.81 229.79 796.35 227.58 C 795.60 225.78 798.08 224.40 798.89 222.99 C 798.15 221.12 796.92 219.56 795.56 218.12 C 791.38 218.72 789.69 223.16 787.17 225.98 C 789.21 228.91 792.34 230.74 794.75 233.30 C 795.94 236.37 796.28 239.73 796.82 242.97 C 797.17 244.27 795.98 245.20 795.39 246.20 C 791.76 250.81 788.20 255.47 784.77 260.23 C 783.84 260.54 782.91 260.85 781.99 261.17 C 779.21 261.46 776.47 262.00 773.75 262.57 C 770.01 259.52 765.71 257.16 762.20 253.85 C 761.55 250.33 761.00 246.69 761.04 243.11 C 763.14 239.75 765.85 236.80 768.21 233.62 C 771.28 235.58 774.52 237.45 777.06 240.10 C 775.79 242.31 773.94 244.10 772.23 245.95 C 772.76 248.19 774.63 249.54 776.37 250.84 C 776.81 250.69 777.70 250.40 778.14 250.26 C 780.69 247.17 783.07 243.94 785.69 240.90 C 783.37 237.68 779.53 235.96 777.21 232.81 C 776.52 229.61 776.21 226.32 776.16 223.05 C 779.37 217.71 783.84 213.20 786.90 207.75 Z" />
<path fill="#0d2959" opacity="1.00" d=" M 462.85 225.12 C 482.35 221.02 502.05 217.59 521.98 216.43 C 570.62 213.25 619.96 220.01 665.88 236.44 C 735.98 261.25 797.77 308.74 839.95 369.96 C 875.74 421.40 897.37 482.54 902.03 545.01 C 903.01 552.97 902.31 561.02 903.11 568.98 C 903.30 571.62 903.31 574.27 903.10 576.91 C 902.29 584.92 902.99 593.01 901.94 601.00 C 897.91 652.26 882.61 702.62 857.33 747.40 C 817.69 818.23 753.26 874.86 677.76 904.75 C 637.84 920.66 594.96 929.53 551.96 929.90 C 547.68 930.47 543.31 930.46 539.03 929.91 C 507.86 929.84 476.84 924.77 446.86 916.37 C 379.99 897.32 319.08 858.08 273.91 805.24 C 235.57 760.67 208.38 706.54 195.92 649.07 C 186.03 603.65 184.84 556.30 193.25 510.55 C 199.30 475.95 210.99 442.47 226.66 411.07 C 229.69 411.88 232.31 413.69 235.15 414.97 C 228.76 428.82 222.12 442.61 217.23 457.08 C 210.65 475.99 205.20 495.37 202.06 515.16 C 190.17 584.38 200.10 657.22 230.26 720.69 C 263.71 792.11 322.29 851.38 393.29 885.71 C 454.08 915.56 523.77 926.51 590.85 917.66 C 598.30 916.80 605.66 915.30 613.08 914.22 L 613.67 913.82 C 700.39 897.20 779.30 845.13 830.00 773.01 C 859.04 731.92 879.10 684.46 887.97 634.92 C 898.71 575.35 893.99 512.91 873.52 455.88 C 848.99 386.54 801.50 325.70 740.49 284.68 C 681.86 244.95 610.82 223.75 540.00 225.34 C 526.98 225.28 514.02 226.42 501.10 227.87 C 492.71 229.16 484.30 230.32 475.98 232.05 C 473.93 232.91 472.22 231.41 470.58 230.43 C 467.95 228.74 465.16 227.26 462.85 225.12 Z" />
<path fill="#0d2959" opacity="1.00" d=" M 826.61 243.74 C 829.02 240.73 831.79 238.00 834.76 235.55 C 841.80 242.36 849.27 248.74 855.89 255.98 C 853.30 258.74 850.47 261.29 848.19 264.33 C 835.70 268.83 823.36 273.71 810.81 278.02 C 810.68 278.25 810.42 278.71 810.29 278.93 C 814.33 283.07 818.60 286.98 822.74 291.02 C 820.51 293.61 818.27 296.19 815.98 298.73 C 811.66 295.52 807.79 291.75 803.92 288.03 C 800.69 284.94 797.02 282.30 794.08 278.92 L 794.04 278.02 C 796.21 275.59 798.48 273.18 801.03 271.15 C 813.31 266.21 825.61 261.31 837.96 256.56 C 838.63 256.27 839.24 255.87 839.79 255.38 C 835.57 251.30 830.94 247.69 826.61 243.74 Z" />
<path fill="#0d2959" opacity="1.00" d=" M 140.06 273.66 C 199.00 307.44 257.83 341.41 316.72 375.27 C 327.41 381.31 337.81 387.94 348.96 393.13 C 359.68 398.74 370.45 404.24 381.19 409.82 C 383.23 410.62 383.34 413.11 384.14 414.87 C 389.02 430.04 395.96 444.63 405.76 457.26 C 409.59 462.37 413.88 467.10 418.00 471.98 C 423.72 479.05 431.40 484.09 438.37 489.79 C 399.61 479.58 361.71 465.86 325.72 448.17 C 284.96 428.06 246.67 402.53 213.78 371.06 C 184.18 342.85 159.06 309.89 140.06 273.66 Z" />
<path fill="#0d2959" opacity="1.00" d=" M 828.54 312.13 C 843.28 299.36 858.33 286.96 873.10 274.23 C 875.97 276.63 877.97 279.85 880.16 282.84 C 874.70 287.20 869.51 291.88 864.01 296.17 C 867.15 296.39 869.79 293.56 872.83 292.83 C 876.93 291.17 880.90 289.17 885.05 287.60 C 887.54 290.73 890.07 293.83 892.43 297.06 C 891.97 297.58 891.05 298.60 890.59 299.11 C 890.45 298.64 890.17 297.70 890.03 297.23 C 889.91 297.66 889.67 298.51 889.55 298.94 C 881.57 301.47 873.64 304.15 865.68 306.73 C 859.61 316.28 854.17 326.22 848.03 335.72 C 845.06 332.78 842.65 329.37 840.09 326.09 C 845.09 319.19 848.98 311.46 854.65 305.07 C 847.52 309.25 841.68 315.27 835.13 320.26 C 832.75 317.70 830.43 315.07 828.54 312.13 Z" />
<path fill="#0d2959" opacity="1.00" d=" M 596.07 280.13 C 596.46 279.24 596.95 278.40 597.55 277.63 C 600.40 286.11 603.43 294.53 606.34 303.00 C 614.86 297.89 623.29 292.64 631.86 287.62 C 629.54 297.32 627.15 307.02 624.87 316.74 C 633.58 317.03 642.29 317.46 651.01 317.76 C 643.28 324.02 635.47 330.17 627.72 336.41 C 614.03 325.64 600.06 315.21 586.41 304.38 C 589.71 296.33 592.87 288.22 596.07 280.13 Z" />
<path fill="#0d2959" opacity="1.00" d=" M 865.86 344.74 C 877.98 337.27 889.52 328.81 901.83 321.65 C 905.11 322.71 908.54 323.19 911.93 323.84 C 914.48 327.68 916.92 331.62 919.68 335.33 C 919.11 338.85 918.57 342.40 917.64 345.85 C 905.59 353.45 893.78 361.46 881.79 369.18 C 880.08 370.58 877.91 369.35 876.03 369.20 C 873.85 368.49 870.95 368.84 869.48 366.79 C 866.81 363.20 864.26 359.52 861.64 355.91 C 861.98 354.91 862.44 353.95 862.85 352.98 C 862.73 351.16 862.55 348.51 864.74 347.85 C 864.33 347.71 863.52 347.43 863.11 347.30 C 863.80 346.20 864.72 345.35 865.86 344.74 M 874.20 351.97 C 873.88 354.91 875.53 357.43 878.08 358.78 C 887.85 352.55 897.45 346.05 907.33 339.98 C 907.47 337.34 906.18 333.33 903.02 333.42 C 893.42 339.61 883.80 345.78 874.20 351.97 Z" />
<path fill="#0d2959" opacity="1.00" d=" M 769.96 367.86 C 775.71 362.91 783.70 362.11 790.96 362.96 C 782.49 368.39 776.77 377.91 776.94 388.09 C 783.19 382.99 788.86 377.26 794.54 371.56 C 802.75 375.07 811.43 377.50 819.33 381.73 C 824.15 384.26 826.62 389.49 827.98 394.52 C 818.76 392.02 808.89 391.64 799.64 394.23 C 799.88 415.42 790.83 436.13 776.02 451.14 C 779.00 458.61 785.66 464.13 792.05 468.84 C 784.74 471.75 776.40 472.80 768.88 470.08 C 761.08 467.48 755.03 461.07 751.80 453.63 C 737.58 468.84 723.52 484.21 709.35 499.47 C 701.29 482.27 690.44 466.35 677.21 452.70 C 692.48 445.15 707.04 436.10 720.24 425.31 C 720.33 430.19 720.43 435.06 720.62 439.94 C 728.11 433.96 735.91 428.39 743.62 422.68 C 749.33 418.61 753.84 412.70 755.82 405.94 C 757.91 398.29 754.82 390.32 750.05 384.33 C 757.03 379.26 763.43 373.48 769.96 367.86 Z" />
<path fill="#0d2959" opacity="1.00" d=" M 915.21 379.09 C 922.78 376.06 929.68 371.57 937.06 368.11 C 939.89 370.64 940.95 374.74 942.57 378.14 C 936.67 381.14 930.47 383.56 924.75 386.89 C 926.58 388.65 928.44 390.39 930.31 392.12 C 927.73 393.83 924.94 395.18 922.10 396.37 C 919.12 396.68 917.76 392.89 915.05 392.17 C 909.91 393.94 905.19 396.74 900.16 398.78 C 900.89 402.16 902.85 405.08 903.92 408.35 C 902.30 408.94 900.66 409.48 899.01 409.95 C 897.14 410.41 895.31 410.94 893.55 411.71 C 891.09 405.64 887.46 400.09 885.28 393.90 C 892.00 390.98 898.53 387.64 905.25 384.73 C 904.23 383.41 903.14 382.15 902.03 380.93 C 904.99 379.27 908.23 378.13 911.14 376.36 C 912.56 377.15 913.91 378.07 915.21 379.09 Z" />
<path fill="#0d2959" opacity="1.00" d=" M 136.90 400.78 C 138.43 396.86 140.09 392.85 142.68 389.50 C 153.20 393.16 164.33 394.91 175.02 398.04 C 183.21 399.84 191.30 402.05 199.43 404.10 C 199.55 406.56 197.98 408.68 197.30 410.97 C 196.67 412.51 196.00 414.04 195.29 415.56 C 192.22 414.69 189.11 413.95 186.16 412.71 C 185.82 412.71 185.15 412.70 184.81 412.70 C 184.10 414.44 183.35 416.19 182.54 417.90 C 185.71 419.19 188.36 421.40 191.26 423.17 C 189.86 426.33 188.45 429.49 186.99 432.63 C 170.26 422.06 153.67 411.28 136.90 400.78 M 161.21 404.23 C 162.00 405.30 162.69 406.61 164.21 406.70 C 167.00 408.51 169.74 410.77 172.95 411.65 C 174.55 412.16 174.00 409.81 174.50 408.94 C 171.46 408.58 168.59 407.49 165.72 406.48 C 164.80 405.83 163.75 405.58 162.59 405.71 C 162.25 405.34 161.55 404.60 161.21 404.23 Z" />
<path fill="#0d2959" opacity="1.00" d=" M 954.25 416.10 C 955.68 415.91 957.81 414.41 958.85 416.01 C 960.50 419.35 961.68 422.90 963.03 426.37 C 945.92 435.55 929.35 445.76 912.48 455.39 C 911.92 455.54 910.78 455.85 910.22 456.00 C 909.26 452.28 908.24 448.57 906.99 444.94 C 909.80 443.17 912.77 441.66 915.74 440.18 C 915.21 438.24 914.67 436.30 914.18 434.36 C 910.80 434.90 907.59 436.86 904.19 436.70 C 902.38 433.67 901.73 430.05 900.50 426.75 C 918.44 423.32 936.29 419.40 954.25 416.10 M 937.01 429.04 C 933.02 429.68 929.20 431.10 925.21 431.69 C 925.25 432.73 925.32 433.78 925.40 434.83 C 930.83 432.98 935.76 429.84 941.50 428.82 L 938.20 428.90 L 939.56 426.73 C 938.80 427.60 937.94 428.38 937.01 429.04 Z" />
<path fill="#0d2959" opacity="1.00" d=" M 123.85 433.97 C 125.14 430.77 125.55 427.14 127.64 424.32 C 145.68 432.17 163.76 439.92 181.82 447.73 C 180.93 451.18 179.65 454.51 178.58 457.91 C 173.87 457.49 169.21 456.70 164.50 456.26 C 158.36 455.35 152.04 455.33 146.09 453.43 C 151.53 456.39 157.27 458.72 162.93 461.20 C 167.28 463.15 171.76 464.83 176.01 467.01 C 175.14 470.32 173.95 473.52 172.89 476.77 C 153.30 474.08 133.85 470.18 114.31 467.09 C 115.02 463.46 116.22 459.95 117.63 456.54 C 127.32 459.06 137.14 461.05 146.86 463.41 C 147.43 464.05 147.98 464.71 148.51 465.40 L 147.06 463.09 C 147.68 463.13 148.90 463.21 149.51 463.26 C 139.05 460.09 129.25 454.98 119.06 450.99 C 119.79 447.06 121.04 443.25 122.48 439.53 C 131.59 441.62 140.82 443.17 149.97 445.06 C 152.07 445.79 154.05 447.07 156.39 446.70 C 152.77 444.79 148.85 443.55 145.06 442.03 C 137.95 439.46 131.07 436.23 123.85 433.97 Z" />
<path fill="#0d2959" opacity="1.00" d=" M 105.55 511.12 C 107.02 503.06 108.73 495.04 109.93 486.93 C 113.39 487.64 116.85 488.38 120.34 488.97 C 120.13 491.77 119.68 494.55 119.21 497.32 C 124.38 498.52 129.70 498.89 134.88 500.05 C 145.45 501.43 155.92 503.53 166.49 504.95 C 166.55 508.83 165.36 512.60 165.40 516.50 C 159.97 515.50 154.48 514.86 149.07 513.82 C 145.06 513.07 140.91 512.91 137.01 511.79 C 135.01 511.56 132.96 511.60 131.07 510.84 C 126.59 510.14 121.89 510.05 117.63 508.43 C 116.40 511.21 117.63 515.23 115.09 517.21 C 111.91 516.54 108.76 515.66 105.53 515.22 C 105.33 513.85 105.21 512.46 105.55 511.12 Z" />
<path fill="#0d2959" opacity="1.00" d=" M 970.12 497.25 C 972.59 496.24 975.36 496.57 977.92 495.85 C 979.14 495.67 981.70 494.74 981.70 496.83 C 982.47 499.77 982.59 502.82 982.81 505.84 C 973.98 509.79 965.08 513.59 956.37 517.80 C 956.41 517.96 956.48 518.28 956.52 518.44 C 963.47 516.37 970.87 516.25 978.03 515.10 C 980.18 514.52 982.40 514.36 984.63 514.25 C 984.67 515.47 984.74 516.70 984.82 517.93 C 985.46 520.11 985.58 522.39 985.79 524.65 C 980.91 525.68 975.94 526.23 971.01 526.92 C 959.74 528.78 948.40 530.20 937.13 532.07 C 933.83 532.42 930.58 533.02 927.31 533.51 C 926.64 530.05 926.26 526.55 926.11 523.04 C 934.75 519.27 943.27 515.24 951.94 511.55 C 942.84 511.88 933.93 514.45 924.86 515.28 C 923.73 511.67 923.47 507.88 923.21 504.14 C 934.53 502.41 945.83 500.50 957.20 499.15 C 959.41 498.43 961.74 498.35 964.05 498.17 C 965.96 497.32 968.07 497.42 970.12 497.25 Z" />
<path fill="#0d2959" opacity="1.00" d=" M 102.38 545.11 C 104.67 542.22 107.92 540.14 110.71 537.71 C 113.85 538.34 117.05 538.65 120.24 538.89 C 120.20 542.37 120.20 545.87 120.24 549.36 C 118.48 549.34 116.71 549.32 114.94 549.32 C 114.63 549.70 113.99 550.45 113.67 550.82 C 113.37 552.29 113.02 553.75 112.59 555.19 C 115.43 558.20 120.17 556.49 123.84 556.62 C 125.84 553.90 124.42 550.11 124.86 546.96 C 128.17 544.61 130.72 541.38 133.92 538.90 C 140.59 539.24 147.26 539.72 153.95 539.86 C 156.55 542.86 159.45 545.67 161.65 548.99 C 161.59 553.33 161.27 557.69 160.65 562.00 C 158.67 564.90 155.39 566.67 152.92 569.15 C 148.84 569.24 144.76 569.15 140.68 569.24 C 139.48 565.48 141.05 561.54 140.93 557.70 C 143.28 558.07 145.64 558.44 148.00 558.76 C 148.59 558.31 149.76 557.41 150.34 556.96 C 150.20 555.13 151.05 552.83 149.26 551.59 C 145.59 550.57 141.71 550.39 137.91 550.38 C 135.99 550.56 136.41 552.94 135.91 554.28 C 135.52 556.60 135.40 558.95 135.28 561.30 C 132.65 563.67 130.00 566.01 127.31 568.31 C 121.22 568.19 115.19 567.30 109.10 567.22 C 106.50 564.57 104.26 561.55 101.31 559.26 C 101.37 554.52 102.08 549.83 102.38 545.11 Z" />
<path fill="#0d2959" opacity="1.00" d=" M 928.96 549.19 C 947.32 551.56 965.68 554.04 984.05 556.45 C 985.57 556.63 987.04 557.06 988.51 557.53 C 988.46 561.18 988.46 564.84 988.53 568.50 C 976.82 571.63 964.78 573.50 952.91 575.94 C 951.27 576.34 949.59 576.62 947.96 576.93 C 946.30 577.37 944.59 577.60 942.93 577.87 C 941.34 578.54 939.58 578.55 937.92 578.81 C 936.38 579.55 934.61 579.52 932.97 579.81 C 931.90 580.29 930.73 580.43 929.60 580.62 C 928.34 576.65 929.07 572.45 928.89 568.37 C 932.39 567.68 935.93 567.17 939.39 566.31 C 939.38 564.42 939.38 562.55 939.40 560.69 C 935.87 560.58 932.38 560.15 928.91 559.59 C 928.88 556.12 928.87 552.66 928.96 549.19 M 950.10 561.47 C 950.27 562.80 950.45 564.13 950.66 565.47 C 955.70 564.29 961.01 564.87 965.93 563.12 C 960.67 562.31 955.30 562.71 950.10 561.47 Z" />
<path fill="#0d2959" opacity="1.00" d=" M 102.22 592.74 C 121.70 591.22 141.17 589.46 160.66 587.87 C 160.97 591.26 161.96 594.64 161.40 598.06 C 152.11 601.46 142.89 605.04 133.70 608.69 C 142.82 607.94 151.89 606.71 161.02 606.10 C 161.44 606.22 162.28 606.46 162.71 606.58 C 162.66 610.13 162.68 613.69 162.72 617.25 C 143.18 618.74 123.67 620.71 104.11 621.92 C 104.20 618.69 102.18 614.75 104.01 611.99 C 112.97 608.24 122.16 604.97 131.21 601.42 C 122.07 602.10 112.95 603.13 103.83 604.07 C 103.46 603.80 102.71 603.26 102.33 603.00 C 102.09 599.58 102.30 596.15 102.22 592.74 Z" />
<path fill="#0d2959" opacity="1.00" d=" M 927.76 606.52 C 927.54 601.55 933.17 599.71 935.96 596.43 C 938.27 596.54 940.64 596.51 942.89 597.21 C 946.23 597.62 949.71 597.12 952.96 598.19 C 956.58 598.55 960.33 598.17 963.87 599.23 C 967.22 599.47 970.68 599.20 973.95 600.17 C 978.54 600.18 983.07 600.88 987.63 601.33 C 987.62 605.15 986.76 608.88 986.51 612.68 C 972.06 611.05 957.58 609.71 943.11 608.26 C 941.53 608.01 939.97 608.27 938.47 608.70 C 938.44 610.88 938.48 613.07 938.71 615.25 C 954.38 617.04 970.12 618.27 985.78 620.22 C 985.56 623.68 985.04 627.11 984.60 630.55 C 982.06 630.46 979.50 630.48 977.04 629.82 C 970.35 629.33 963.63 628.88 957.03 627.85 C 949.00 627.48 941.04 626.42 933.04 625.71 C 931.15 623.11 928.91 620.74 927.28 617.97 C 926.81 614.16 927.63 610.33 927.76 606.52 Z" />
<path fill="#0d2959" opacity="1.00" d=" M 89.18 596.97 C 93.28 598.66 96.40 601.97 100.28 604.06 C 100.38 606.30 100.42 608.54 100.46 610.79 C 97.02 609.95 93.59 609.01 90.29 607.73 C 89.39 604.25 89.32 600.56 89.18 596.97 Z" />
<path fill="#0d2959" opacity="1.00" d=" M 155.00 637.17 C 158.75 636.84 162.57 635.80 166.32 636.64 C 167.50 644.30 168.94 651.94 170.50 659.55 C 151.38 663.88 132.08 667.47 112.85 671.31 C 111.33 664.88 110.12 658.38 108.58 651.96 C 108.15 650.48 108.21 648.97 108.42 647.49 C 109.08 647.45 110.40 647.37 111.06 647.33 C 113.26 646.12 115.93 646.15 118.33 645.56 C 120.48 649.58 119.91 654.55 121.38 658.86 C 125.48 657.61 129.75 657.04 133.93 656.15 C 133.69 652.61 132.75 649.19 132.26 645.70 C 132.97 645.58 134.37 645.34 135.08 645.22 C 137.51 644.52 140.07 644.39 142.44 643.46 C 143.64 646.81 144.11 650.35 144.76 653.84 C 149.12 653.07 153.47 652.18 157.81 651.28 C 156.99 646.55 155.78 641.90 155.00 637.17 Z" />
<path fill="#0d2959" opacity="1.00" d=" M 513.90 660.61 C 544.60 653.54 575.24 646.21 605.97 639.26 C 611.60 656.99 612.17 676.56 606.20 694.28 C 601.36 708.78 592.18 721.79 580.19 731.27 C 569.19 739.99 556.02 745.92 542.23 748.52 C 551.13 755.75 560.15 762.85 569.56 769.42 C 574.02 772.40 578.52 775.79 583.89 776.89 C 591.45 778.30 599.05 775.49 605.30 771.38 C 619.84 785.55 634.42 799.68 648.88 813.92 C 614.91 813.87 580.94 813.94 546.98 813.89 C 545.54 814.20 544.92 812.69 544.18 811.83 C 526.27 787.18 508.21 762.65 490.28 738.01 C 505.56 732.10 518.55 719.21 522.41 703.01 C 526.29 688.47 522.23 672.84 513.90 660.61 Z" />
<path fill="#0d2959" opacity="1.00" d=" M 922.40 643.48 C 937.00 646.16 951.42 649.76 965.93 652.88 C 970.98 654.22 976.30 654.68 981.12 656.79 C 980.08 660.02 979.02 663.26 978.02 666.51 C 971.02 664.99 963.99 663.60 957.05 661.85 C 956.85 661.87 956.43 661.91 956.22 661.93 C 963.06 665.42 969.59 669.48 976.34 673.15 C 975.91 677.32 974.85 681.40 974.15 685.53 C 971.65 684.74 969.67 683.00 967.56 681.55 C 961.76 677.39 955.81 673.44 950.07 669.19 C 938.93 670.75 927.72 671.68 916.58 673.17 C 917.28 669.35 917.78 665.49 918.82 661.75 C 919.07 661.49 919.58 660.98 919.84 660.72 C 928.23 660.51 936.64 660.28 944.97 659.23 C 936.67 657.72 928.35 656.00 920.35 653.34 C 921.10 651.14 921.55 648.86 921.59 646.54 L 922.44 646.47 C 922.43 645.72 922.41 644.23 922.40 643.48 Z" />
<path fill="#0d2959" opacity="1.00" d=" M 165.20 680.76 C 168.61 679.57 172.02 678.39 175.46 677.30 C 177.51 682.81 179.14 688.47 180.86 694.09 C 182.06 698.03 183.35 701.95 184.48 705.92 C 180.64 706.77 177.02 708.86 173.03 708.80 C 159.78 707.31 146.56 705.38 133.28 704.21 C 135.74 709.60 137.14 715.39 139.21 720.93 C 135.35 721.62 131.79 723.38 127.95 724.14 C 127.27 721.51 126.37 718.93 125.32 716.44 C 125.68 716.36 126.42 716.21 126.79 716.13 C 125.35 715.85 124.50 714.95 124.26 713.45 C 124.61 713.34 125.32 713.11 125.68 713.00 C 125.30 712.87 124.53 712.63 124.15 712.50 C 122.69 706.90 120.07 701.54 119.23 695.82 C 123.60 694.78 127.92 692.00 132.51 693.17 C 137.00 693.78 141.48 694.51 146.00 694.93 C 148.30 695.53 150.69 695.62 153.05 695.87 C 158.72 697.07 164.57 697.17 170.23 698.44 C 170.21 698.08 170.18 697.36 170.16 697.00 C 168.10 691.72 166.66 686.22 165.20 680.76 Z" />
<path fill="#0d2959" opacity="1.00" d=" M 896.17 727.81 C 899.50 726.82 902.84 725.84 906.10 724.64 C 910.11 726.55 914.40 728.10 917.97 730.82 C 915.95 733.75 914.09 736.79 912.61 740.03 C 910.31 738.81 908.03 737.54 905.80 736.23 C 905.32 736.64 904.36 737.47 903.88 737.88 C 903.48 738.82 903.08 739.77 902.69 740.73 C 902.61 741.64 902.55 742.56 902.51 743.49 C 905.93 745.26 909.50 746.73 912.93 748.52 C 913.50 748.17 914.65 747.48 915.22 747.13 C 916.46 744.50 917.32 741.58 919.04 739.23 C 922.08 737.99 925.07 736.60 928.14 735.40 C 929.42 734.74 930.67 735.83 931.85 736.24 C 936.34 738.53 941.01 740.46 945.46 742.84 C 947.03 746.14 948.54 749.53 949.81 752.98 C 948.47 757.58 945.89 761.76 943.99 766.17 C 940.22 767.10 936.78 768.93 933.11 770.13 C 930.14 768.63 926.97 767.56 924.09 765.92 C 925.07 762.24 926.88 758.84 928.72 755.54 C 930.88 756.34 933.62 759.16 935.68 756.67 C 937.51 755.16 937.96 752.51 936.18 750.79 C 933.64 749.87 931.20 748.73 928.85 747.42 C 928.32 747.76 927.26 748.42 926.73 748.75 C 925.35 751.34 924.33 754.16 922.59 756.54 C 919.52 757.95 916.30 759.12 913.00 759.83 C 906.19 757.63 900.17 753.40 893.37 751.15 C 892.23 747.80 890.83 744.47 890.32 740.96 C 891.58 736.32 894.83 732.45 896.17 727.81 Z" />
<path fill="#0d2959" opacity="1.00" d=" M 175.77 729.78 C 178.59 728.63 181.16 726.96 183.99 725.82 C 186.59 726.13 188.90 727.55 191.36 728.36 C 192.66 728.99 194.50 729.17 195.14 730.68 C 196.87 734.42 198.61 738.16 200.33 741.90 C 199.64 745.53 198.64 749.41 196.84 752.66 C 183.85 759.27 170.41 765.04 157.21 771.25 C 153.54 769.05 147.33 769.95 145.87 765.10 C 144.58 761.74 142.85 758.55 141.79 755.11 C 142.44 751.58 143.87 748.27 144.81 744.83 C 148.15 743.08 151.57 741.49 154.90 739.73 C 156.52 742.92 158.27 746.05 160.10 749.13 C 158.04 751.10 154.31 751.04 153.27 754.04 C 153.66 756.12 155.18 757.77 156.10 759.64 C 156.17 759.38 156.31 758.84 156.37 758.58 C 156.91 758.51 157.99 758.38 158.53 758.32 C 168.11 753.96 177.65 749.50 187.25 745.19 C 190.33 743.18 187.45 739.02 184.88 738.25 C 181.85 739.27 179.25 741.28 176.12 742.08 C 174.63 738.68 173.03 735.33 171.75 731.85 C 173.07 731.13 174.41 730.43 175.77 729.78 Z" />
<path fill="#0d2959" opacity="1.00" d=" M 877.43 764.46 C 878.83 764.16 879.95 765.23 881.09 765.89 C 894.73 774.63 908.53 783.12 922.21 791.80 C 924.18 793.10 926.47 794.07 928.03 795.94 C 925.49 800.63 922.23 804.91 919.49 809.49 C 918.30 811.27 917.32 813.75 914.80 813.83 C 911.75 814.31 908.65 815.58 905.59 815.30 C 897.96 810.37 890.17 805.61 882.81 800.27 C 882.30 797.07 881.74 793.85 880.70 790.78 C 882.27 787.74 884.77 785.22 885.95 781.99 C 882.40 779.50 878.49 777.55 874.82 775.26 C 873.83 774.47 871.74 774.02 872.44 772.37 C 873.97 769.66 875.63 767.01 877.43 764.46 M 893.04 794.09 C 896.20 795.81 899.21 797.82 902.31 799.68 C 904.82 801.10 907.09 803.27 910.15 803.37 C 911.01 801.87 911.88 800.37 912.75 798.88 C 906.95 795.56 901.35 791.91 895.77 788.25 C 894.51 790.01 893.19 791.84 893.04 794.09 Z" />
<path fill="#0d2959" opacity="1.00" d=" M 203.52 770.77 C 206.56 768.87 210.03 767.79 213.18 766.11 C 216.16 770.40 218.88 774.87 221.77 779.23 C 223.33 781.70 225.32 783.97 226.13 786.84 C 209.67 797.29 193.36 807.99 176.98 818.57 C 172.28 812.08 168.08 805.23 163.28 798.81 C 166.29 796.62 169.41 793.99 172.90 792.88 C 175.41 796.08 177.72 799.45 179.96 802.85 C 183.80 801.01 187.06 798.19 190.78 796.13 C 188.98 793.25 187.12 790.41 185.09 787.69 C 188.30 785.73 191.35 783.54 194.28 781.20 C 196.29 783.94 198.18 786.78 199.92 789.72 C 203.81 787.68 207.40 785.12 211.21 782.93 C 208.99 778.94 205.89 775.55 203.30 771.82 C 203.36 771.56 203.47 771.03 203.52 770.77 Z" />
<path fill="#0d2959" opacity="1.00" d=" M 235.35 803.25 C 236.10 802.74 236.89 802.29 237.71 801.91 C 239.78 804.72 241.92 807.49 244.08 810.25 C 228.90 822.70 213.26 834.58 197.96 846.89 C 195.85 844.01 193.55 841.27 191.60 838.28 C 206.29 826.74 220.80 814.96 235.35 803.25 Z" />
<path fill="#0d2959" opacity="1.00" d=" M 847.11 808.85 C 850.53 808.71 853.94 808.35 857.31 807.66 C 869.19 816.33 880.63 825.65 892.21 834.74 C 892.19 838.55 893.12 842.30 893.18 846.11 C 890.35 849.90 887.32 853.56 884.19 857.11 C 879.83 856.70 874.48 859.75 871.02 855.95 C 860.52 847.29 849.81 838.89 839.29 830.25 C 839.29 828.50 839.46 826.71 838.81 825.06 C 838.55 823.33 838.31 821.59 838.41 819.86 C 840.93 815.91 844.34 812.62 847.11 808.85 M 850.56 825.14 C 859.30 832.17 868.00 839.25 876.55 846.52 C 877.40 846.52 878.27 846.53 879.15 846.55 C 880.29 844.80 882.95 842.71 881.40 840.50 C 872.82 833.47 863.99 826.73 855.39 819.72 C 852.30 817.75 849.20 822.32 850.56 825.14 Z" />
<path fill="#0d2959" opacity="1.00" d=" M 256.87 849.52 C 260.29 845.10 264.94 841.85 268.90 837.94 C 271.08 840.74 274.85 842.69 275.97 846.05 C 265.73 856.47 255.25 866.71 244.68 876.81 C 241.11 880.06 237.95 883.77 234.08 886.69 C 229.16 881.67 224.63 876.23 219.30 871.65 C 219.23 868.13 219.24 864.61 219.29 861.11 C 223.20 858.90 225.88 855.12 229.24 852.22 C 232.76 848.73 236.67 845.63 239.75 841.73 C 243.17 842.30 246.64 842.61 250.11 842.79 C 252.32 845.07 254.59 847.29 256.87 849.52 M 243.45 853.42 C 239.12 857.49 234.56 861.37 230.54 865.74 C 230.20 868.44 232.77 869.99 234.55 871.51 C 239.17 866.76 243.89 862.06 249.00 857.82 C 247.98 855.73 246.28 852.36 243.45 853.42 Z" />
<path fill="#0d2959" opacity="1.00" d=" M 807.82 852.88 C 811.51 849.64 814.48 845.58 818.53 842.77 C 823.46 848.33 828.96 853.35 834.16 858.67 C 834.76 857.25 835.43 855.86 836.08 854.46 C 839.21 856.57 840.97 860.11 844.15 862.17 C 843.48 863.72 842.83 865.28 842.21 866.86 C 848.13 872.48 853.70 878.45 859.60 884.10 C 857.30 886.98 854.72 889.69 851.85 892.01 C 850.56 892.01 849.94 890.66 849.07 889.97 C 845.26 886.06 841.86 881.75 837.82 878.08 C 836.95 880.57 836.00 883.04 835.00 885.49 C 831.66 883.75 829.55 880.44 826.79 877.97 C 827.78 875.29 828.77 872.61 829.86 869.98 C 826.05 865.89 821.99 862.06 818.08 858.08 C 815.73 860.45 813.39 862.84 810.91 865.08 C 808.91 862.36 806.99 859.58 805.34 856.64 C 805.02 854.90 806.88 854.00 807.82 852.88 Z" />
<path fill="#0d2959" opacity="1.00" d=" M 283.14 866.96 C 284.73 863.62 287.53 861.09 289.92 858.34 C 297.74 864.22 305.36 870.37 313.08 876.39 C 311.53 879.62 309.01 882.22 306.91 885.08 C 303.80 885.98 301.01 887.67 298.11 889.06 C 288.71 893.64 279.35 898.30 269.88 902.73 C 273.86 906.84 278.48 910.30 282.84 914.01 C 281.30 917.36 278.40 919.80 276.09 922.61 C 268.26 916.81 260.79 910.56 252.97 904.75 C 254.23 901.33 257.04 898.84 259.07 895.89 C 271.90 890.49 284.05 883.55 296.85 878.05 C 292.45 874.15 287.78 870.57 283.14 866.96 Z" />
<path fill="#0d2959" opacity="1.00" d=" M 782.68 874.66 C 785.36 872.72 787.66 870.13 790.81 868.92 C 802.06 883.76 813.49 898.46 824.91 913.17 C 825.41 913.90 825.78 914.72 826.02 915.62 C 819.80 920.22 813.75 925.06 807.76 929.95 C 805.49 927.31 803.56 924.40 801.25 921.81 C 804.17 918.61 807.69 916.06 810.87 913.14 C 808.27 909.84 805.46 906.71 803.03 903.30 C 800.36 905.39 797.64 907.42 794.90 909.41 C 792.44 906.71 790.41 903.67 788.12 900.84 C 790.57 898.70 793.42 897.04 795.71 894.73 C 796.47 893.46 794.91 892.44 794.36 891.48 C 792.56 889.24 790.72 887.05 788.96 884.80 C 784.59 886.84 781.44 890.74 777.17 892.93 C 774.15 891.06 773.43 886.58 771.15 883.81 C 774.77 880.48 778.89 877.78 782.68 874.66 Z" />
<path fill="#0d2959" opacity="1.00" d=" M 329.09 887.95 C 335.70 892.25 342.55 896.23 348.91 900.90 C 338.40 917.38 328.28 934.10 318.01 950.72 C 313.83 948.83 310.19 945.98 306.32 943.57 C 303.27 941.46 299.86 939.81 297.21 937.18 C 299.20 934.28 300.90 931.20 302.94 928.34 C 306.51 930.13 309.69 932.57 313.15 934.53 C 313.52 934.52 314.27 934.50 314.64 934.49 C 316.50 930.89 319.56 927.91 320.74 924.00 C 317.68 922.48 314.66 920.71 312.31 918.20 C 314.38 915.39 316.13 912.37 317.98 909.43 C 321.38 910.88 323.97 913.87 327.58 914.86 C 329.39 910.90 332.78 907.70 333.82 903.42 C 329.91 901.27 326.11 898.93 322.35 896.54 L 322.22 895.96 C 324.33 893.14 326.80 890.61 329.09 887.95 Z" />
<path fill="#0d2959" opacity="1.00" d=" M 748.61 898.64 C 751.48 898.35 754.25 899.60 757.09 900.00 C 759.75 900.25 760.77 902.90 762.01 904.89 C 768.50 916.07 775.15 927.18 781.68 938.34 C 781.25 941.62 779.96 944.73 779.11 947.93 C 778.97 949.79 777.11 950.30 775.78 951.13 C 772.77 952.67 770.03 954.71 766.96 956.12 C 763.48 955.42 760.05 954.40 756.73 953.17 C 754.02 950.48 752.56 946.77 750.19 943.79 C 753.03 941.38 756.47 939.90 759.65 938.03 C 760.80 939.93 761.89 941.92 763.44 943.55 C 765.79 944.40 769.49 942.24 769.39 939.65 C 764.96 931.45 759.93 923.58 755.40 915.44 C 754.07 913.27 753.06 910.37 750.22 909.91 C 748.89 911.21 746.52 911.91 746.23 913.95 C 747.13 917.12 750.32 919.31 750.71 922.66 C 747.81 924.63 744.62 926.11 741.67 928.00 C 739.09 924.28 736.92 920.29 734.71 916.36 C 734.22 912.65 736.07 909.10 736.52 905.45 C 740.70 903.44 744.52 900.80 748.61 898.64 Z" />
<path fill="#0d2959" opacity="1.00" d=" M 361.94 916.86 C 365.15 915.13 368.80 914.20 372.05 912.47 C 378.51 915.85 385.27 918.73 391.40 922.71 C 382.72 940.14 374.57 957.83 366.11 975.37 C 360.20 972.90 354.56 969.86 348.70 967.28 C 344.09 965.50 344.93 959.54 342.78 955.83 C 345.42 950.66 348.13 945.53 350.73 940.35 C 352.44 939.11 354.82 938.98 356.82 938.28 C 356.27 935.43 354.27 932.40 355.75 929.55 C 357.82 925.33 359.65 920.97 361.94 916.86 M 369.97 925.94 C 368.38 929.63 365.71 933.02 365.42 937.14 C 367.36 938.00 369.30 938.87 371.24 939.75 C 373.22 935.76 374.92 931.64 376.78 927.60 C 374.63 926.81 372.23 923.98 369.97 925.94 M 358.77 947.76 C 357.60 950.68 355.71 953.38 355.33 956.58 C 355.07 956.70 354.56 956.94 354.31 957.06 C 356.68 957.99 358.68 959.67 361.03 960.69 C 362.73 956.80 365.01 953.12 366.02 948.97 C 364.36 948.29 362.71 947.59 361.06 946.91 C 360.48 947.12 359.34 947.55 358.77 947.76 Z" />
<path fill="#0d2959" opacity="1.00" d=" M 712.52 917.67 C 714.70 916.63 715.06 919.86 715.88 921.17 C 716.72 923.08 717.68 924.96 718.41 926.94 C 719.03 932.99 717.42 938.97 717.65 945.03 C 717.70 952.92 717.29 960.80 716.66 968.66 C 722.04 965.92 727.93 964.28 733.24 961.39 C 734.82 964.61 736.43 967.84 737.61 971.24 C 737.00 972.52 735.39 972.69 734.28 973.37 C 727.74 976.07 721.47 979.43 714.78 981.75 C 713.77 982.32 712.79 982.96 711.86 983.66 C 708.70 981.51 707.97 977.22 706.39 973.92 C 706.10 967.27 706.73 960.62 707.19 953.99 C 707.32 946.64 707.37 939.27 708.19 931.96 C 702.11 933.86 696.56 937.14 690.67 939.53 C 689.26 936.11 687.98 932.63 687.13 929.04 C 695.60 925.26 704.06 921.47 712.52 917.67 Z" />
<path fill="#0d2959" opacity="1.00" d=" M 659.04 939.22 C 662.39 938.30 665.61 936.96 668.99 936.14 C 671.13 939.70 671.59 944.09 673.06 948.00 C 677.60 962.87 682.52 977.63 686.74 992.59 C 683.61 993.51 680.43 994.25 677.23 994.89 C 672.14 987.46 667.04 980.04 661.99 972.59 C 663.95 980.93 666.44 989.14 668.84 997.38 C 665.37 998.29 661.66 1000.72 658.22 1000.16 C 654.30 987.50 650.81 974.70 646.97 962.01 C 645.35 955.98 642.98 950.13 641.95 943.96 C 644.99 943.34 647.91 942.13 651.02 941.83 C 656.92 949.55 661.40 958.30 667.50 965.88 C 664.35 957.11 661.72 948.15 659.04 939.22 Z" />
<path fill="#0d2959" opacity="1.00" d=" M 442.28 940.84 C 445.69 941.95 449.12 943.00 452.58 943.96 C 447.62 963.00 441.49 981.73 436.16 1000.68 C 434.34 1000.22 432.55 999.74 430.76 999.26 C 429.01 998.67 427.29 998.07 425.65 997.26 C 431.57 978.57 436.68 959.63 442.28 940.84 Z" />
<path fill="#0d2959" opacity="1.00" d=" M 613.11 950.14 C 614.21 949.84 615.32 949.56 616.45 949.30 C 617.56 955.19 618.68 961.09 619.63 967.01 C 625.29 980.03 631.47 992.85 636.67 1006.05 C 632.96 1006.70 629.25 1007.39 625.61 1008.32 C 622.45 1002.15 620.81 995.32 617.60 989.17 C 617.70 995.91 618.73 1002.62 618.48 1009.39 C 614.82 1010.48 610.99 1010.74 607.19 1010.89 C 607.62 997.25 608.49 983.64 608.90 970.00 C 608.60 963.77 606.68 957.74 606.09 951.54 C 608.41 950.98 610.74 950.50 613.11 950.14 Z" />
<path fill="#0d2959" opacity="1.00" d=" M 504.33 955.15 C 508.07 955.18 511.82 954.97 515.54 955.45 C 515.66 958.70 515.37 961.95 514.85 965.17 C 514.53 969.99 514.51 974.85 513.63 979.63 C 516.19 979.64 518.76 979.65 521.33 979.67 C 522.04 971.95 522.30 964.17 523.52 956.51 C 527.08 955.68 530.93 956.94 534.59 957.16 C 534.35 960.33 534.58 963.59 533.69 966.70 C 533.72 975.51 532.42 984.23 532.31 993.04 C 531.16 998.92 532.17 1005.03 530.75 1010.86 C 530.72 1012.41 530.72 1013.99 530.74 1015.57 C 526.94 1015.52 523.15 1015.53 519.36 1015.55 C 519.23 1010.30 520.46 1005.15 520.42 999.91 C 520.46 996.97 520.77 994.05 521.37 991.18 C 518.52 990.77 515.67 990.44 512.82 990.13 C 512.66 998.28 512.30 1006.44 511.51 1014.56 C 507.80 1014.65 504.14 1013.98 500.47 1013.58 C 500.60 1007.03 501.76 1000.56 501.63 994.00 C 502.59 988.34 502.25 982.60 502.82 976.92 C 503.76 971.68 503.12 966.31 504.00 961.07 C 504.32 959.11 504.29 957.11 504.33 955.15 Z" />
<path fill="#0d2959" opacity="1.00" d=" M 560.23 956.22 C 564.69 955.34 569.32 955.61 573.84 955.12 C 576.69 957.79 579.71 960.27 582.66 962.83 C 582.68 966.34 582.42 969.87 582.90 973.37 C 584.04 979.86 583.23 986.50 583.86 993.04 C 584.56 997.63 584.52 1002.28 584.49 1006.91 C 582.23 1009.47 580.00 1012.06 577.70 1014.59 C 572.89 1014.47 568.17 1015.88 563.36 1015.48 C 560.42 1013.54 558.02 1010.92 555.29 1008.72 C 555.21 1004.69 555.27 1000.66 555.23 996.64 C 558.68 996.66 562.14 996.67 565.60 996.59 C 565.68 997.19 565.82 998.39 565.89 998.99 C 566.27 1000.36 566.51 1001.74 566.75 1003.16 C 568.10 1003.96 569.60 1004.55 571.22 1004.20 C 573.35 1002.84 573.35 1000.14 573.21 997.92 C 572.00 991.96 572.59 985.80 572.10 979.77 C 571.48 975.84 571.46 971.86 571.30 967.91 C 570.76 967.54 569.68 966.80 569.14 966.42 C 567.75 966.90 566.32 967.30 564.90 967.65 C 564.60 968.19 564.00 969.26 563.70 969.80 C 564.39 972.37 564.60 975.02 564.80 977.68 C 561.09 978.05 557.40 978.71 553.66 978.72 C 553.54 974.01 552.34 969.41 552.46 964.70 C 555.28 962.09 557.31 958.72 560.23 956.22 Z" />
</g>
</svg>
